<?xml version="1.0" standalone="no"?>
<!DOCTYPE svg PUBLIC "-//W3C//DTD SVG 20010904//EN"
 "http://www.w3.org/TR/2001/REC-SVG-20010904/DTD/svg10.dtd">
<svg version="1.0" xmlns="http://www.w3.org/2000/svg"
 width="962.000000pt" height="962.000000pt" viewBox="0 0 962.000000 962.000000"
 preserveAspectRatio="xMidYMid meet">
<metadata>
Created by potrace 1.14, written by Peter Selinger 2001-2017
</metadata>
<g transform="translate(0.000000,962.000000) scale(0.100000,-0.100000)"
fill="#000000" stroke="none">
<path d="M83 9546 l-28 -24 0 -1515 c0 -1624 -2 -1557 49 -1571 11 -3 699 -6
1528 -6 l1507 0 28 24 27 24 1 1503 c0 844 -3 1516 -8 1532 -20 61 91 57
-1564 57 l-1512 0 -28 -24z"/>
<path d="M3273 9560 c-12 -5 -26 -18 -32 -29 -8 -14 -11 -482 -11 -1536 l0
-1516 25 -24 24 -25 1521 0 c1507 0 1520 0 1540 20 11 11 21 23 22 28 1 4 2
684 4 1512 1 971 -1 1514 -7 1531 -6 15 -22 31 -35 38 -31 14 -3016 15 -3051
1z"/>
<path d="M6427 9541 l-24 -29 1 -1516 1 -1517 24 -25 23 -24 1515 0 c1013 0
1521 3 1533 10 11 6 25 20 31 32 9 16 12 400 11 1507 0 817 -1 1499 -1 1514
-1 17 -12 38 -28 53 l-26 24 -1518 0 -1517 0 -25 -29z"/>
<path d="M90 6368 c-17 -10 -31 -23 -31 -30 -6 -60 -2 -3015 4 -3038 4 -16 17
-35 30 -41 16 -9 386 -12 1522 -12 825 0 1512 3 1526 6 57 14 54 -63 53 1563
0 824 -4 1509 -8 1522 -4 12 -17 28 -29 34 -17 10 -345 13 -1530 14 -1436 0
-1509 0 -1537 -18z"/>
<path d="M3280 6378 c-52 -19 -49 64 -50 -1560 l0 -1517 23 -27 24 -27 1504 0
c827 1 1512 2 1521 2 9 1 28 12 41 25 l24 24 -1 1521 -1 1520 -23 23 -23 23
-1508 1 c-830 0 -1519 -4 -1531 -8z"/>
<path d="M6453 6379 c-51 -19 -48 73 -49 -1561 l-1 -1519 23 -24 c15 -16 35
-25 56 -26 18 0 703 -1 1521 -1 l1488 -1 26 25 26 26 -1 1499 c0 824 -1 1508
-1 1521 -1 12 -13 32 -27 45 l-26 22 -1507 1 c-830 0 -1517 -3 -1528 -7z"/>
<path d="M110 3197 c-60 -15 -56 73 -56 -1575 l1 -1514 27 -22 27 -21 1513 0
c1152 1 1518 4 1534 13 12 6 26 24 31 39 5 16 8 681 8 1525 -1 1602 1 1538
-49 1555 -29 10 -2998 10 -3036 0z"/>
<path d="M3293 3202 c-13 -2 -32 -15 -43 -29 -20 -26 -20 -36 -20 -1543 l0
-1518 24 -23 25 -24 1522 0 1521 0 23 26 22 27 0 1508 c0 830 -4 1519 -8 1531
-4 12 -18 27 -31 34 -17 9 -367 12 -1518 13 -822 1 -1505 0 -1517 -2z"/>
<path d="M6451 3194 c-14 -7 -31 -20 -37 -30 -8 -14 -11 -454 -10 -1536 l1
-1517 23 -23 23 -23 1512 -1 c1617 0 1557 -2 1573 48 4 12 7 701 7 1531 l0
1509 -26 26 -26 26 -1507 0 c-1100 1 -1514 -2 -1533 -10z"/>
</g>
</svg>
