<svg version="1.1" viewBox="0.0 0.0 815.0813648293963 811.9711286089239" fill="none" stroke="none" stroke-linecap="square" stroke-miterlimit="10" xmlns:xlink="http://www.w3.org/1999/xlink" xmlns="http://www.w3.org/2000/svg"><clipPath id="p.0"><path d="m0 0l815.08136 0l0 811.9711l-815.08136 0l0 -811.9711z" clip-rule="nonzero"/></clipPath><g clip-path="url(#p.0)"><path fill="#000000" fill-opacity="0.0" d="m0 0l815.08136 0l0 811.9711l-815.08136 0z" fill-rule="evenodd"/><path fill="#f3f3f3" d="m161.88715 105.54101l0 0c0 -45.224472 36.661667 -81.886154 81.88614 -81.886154l327.53476 0l0 0c21.71759 0 42.545654 8.627268 57.902283 23.9839c15.356628 15.356632 23.983887 36.184692 23.983887 57.902252l0 600.8891c0 45.224487 -36.661682 81.88617 -81.88617 81.88617l-327.53476 0c-45.224472 0 -81.88614 -36.661682 -81.88614 -81.88617z" fill-rule="evenodd"/><path stroke="#000000" stroke-width="4.0" stroke-linejoin="round" stroke-linecap="butt" d="m161.88715 105.54101l0 0c0 -45.224472 36.661667 -81.886154 81.88614 -81.886154l327.53476 0l0 0c21.71759 0 42.545654 8.627268 57.902283 23.9839c15.356628 15.356632 23.983887 36.184692 23.983887 57.902252l0 600.8891c0 45.224487 -36.661682 81.88617 -81.88617 81.88617l-327.53476 0c-45.224472 0 -81.88614 -36.661682 -81.88614 -81.88617z" fill-rule="evenodd"/><path fill="#e06666" d="m407.54068 323.33466c67.2113 -188.1916 329.3353 0 0 241.96063c-329.3353 -241.96063 -67.21127 -430.15222 0 -241.96063z" fill-rule="evenodd"/></g></svg>