<svg version="1.1" viewBox="0.0 0.0 815.0892388451443 811.9790026246719" fill="none" stroke="none" stroke-linecap="square" stroke-miterlimit="10" xmlns:xlink="http://www.w3.org/1999/xlink" xmlns="http://www.w3.org/2000/svg"><clipPath id="p.0"><path d="m0 0l815.08923 0l0 811.979l-815.08923 0l0 -811.979z" clip-rule="nonzero"/></clipPath><g clip-path="url(#p.0)"><path fill="#000000" fill-opacity="0.0" d="m0 0l815.08923 0l0 811.979l-815.08923 0z" fill-rule="evenodd"/><path fill="#cfe2f3" d="m1.5603675 0.005249344l811.9685 0l0 811.9685l-811.9685 0z" fill-rule="evenodd"/><path stroke="#000000" stroke-width="1.0" stroke-linejoin="round" stroke-linecap="butt" d="m1.5603675 0.005249344l811.9685 0l0 811.9685l-811.9685 0z" fill-rule="evenodd"/><path fill="#000000" fill-opacity="0.0" d="m167.38321 513.5906l480.31497 0l0 255.33856l-480.31497 0z" fill-rule="evenodd"/><path fill="#000000" d="m216.02898 607.07056l0 -63.0l12.375 0l25.78125 42.078125l0 -42.078125l11.812485 0l0 63.0l-12.749985 0l-25.40625 -41.078125l0 41.078125l-11.8125 0zm60.550766 -23.46875q0 -6.015625 2.953125 -11.640625q2.96875 -5.625 8.40625 -8.59375q5.4375 -2.96875 12.140625 -2.96875q10.359375 0 16.96875 6.734375q6.625 6.71875 6.625 16.984375q0 10.359375 -6.6875 17.171875q-6.6875 6.8125 -16.828125 6.8125q-6.265625 0 -11.96875 -2.828125q-5.6875 -2.84375 -8.65625 -8.3125q-2.953125 -5.484375 -2.953125 -13.359375zm12.375 0.65625q0 6.78125 3.21875 10.390625q3.21875 3.609375 7.953125 3.609375q4.71875 0 7.921875 -3.609375q3.203125 -3.609375 3.203125 -10.484375q0 -6.703125 -3.203125 -10.3125q-3.203125 -3.609375 -7.921875 -3.609375q-4.734375 0 -7.953125 3.609375q-3.21875 3.609375 -3.21875 10.40625zm68.3125 22.8125l0 -63.0l12.71875 0l0 63.0l-12.71875 0zm23.855469 -45.640625l11.125 0l0 6.234375q5.96875 -7.265625 14.21875 -7.265625q4.390625 0 7.609375 1.8125q3.21875 1.796875 5.28125 5.453125q3.015625 -3.65625 6.484375 -5.453125q3.484375 -1.8125 7.4375 -1.8125q5.03125 0 8.5 2.046875q3.484375 2.046875 5.203125 6.0q1.25 2.921875 1.25 9.453125l0 29.171875l-12.078125 0l0 -26.078125q0 -6.796875 -1.234375 -8.765625q-1.6875 -2.578125 -5.15625 -2.578125q-2.546875 0 -4.78125 1.546875q-2.234375 1.546875 -3.21875 4.53125q-0.984375 2.984375 -0.984375 9.421875l0 21.921875l-12.078125 0l0 -25.015625q0 -6.65625 -0.640625 -8.578125q-0.640625 -1.9375 -2.0 -2.875q-1.359375 -0.953125 -3.671875 -0.953125q-2.796875 0 -5.03125 1.5q-2.234375 1.5 -3.203125 4.34375q-0.96875 2.828125 -0.96875 9.40625l0 22.171875l-12.0625 0l0 -45.640625zm88.16797 13.921875l-10.953125 -1.96875q1.84375 -6.625 6.34375 -9.796875q4.515625 -3.1875 13.421875 -3.1875q8.078125 0 12.03125 1.921875q3.953125 1.90625 5.5625 4.859375q1.609375 2.9375 1.609375 10.796875l-0.125 14.09375q0 6.015625 0.578125 8.875q0.578125 2.859375 2.171875 6.125l-11.953125 0q-0.46875 -1.203125 -1.15625 -3.5625q-0.296875 -1.078125 -0.4375 -1.421875q-3.09375 3.0 -6.625 4.515625q-3.515625 1.5 -7.5 1.5q-7.046875 0 -11.109375 -3.828125q-4.0625 -3.828125 -4.0625 -9.671875q0 -3.859375 1.84375 -6.890625q1.84375 -3.03125 5.171875 -4.640625q3.34375 -1.609375 9.609375 -2.8125q8.46875 -1.59375 11.734375 -2.96875l0 -1.203125q0 -3.484375 -1.71875 -4.953125q-1.71875 -1.484375 -6.484375 -1.484375q-3.234375 0 -5.046875 1.265625q-1.796875 1.265625 -2.90625 4.4375zm16.15625 9.796875q-2.328125 0.78125 -7.359375 1.859375q-5.015625 1.0625 -6.5625 2.09375q-2.359375 1.6875 -2.359375 4.265625q0 2.53125 1.890625 4.375q1.890625 1.84375 4.8125 1.84375q3.265625 0 6.21875 -2.140625q2.203125 -1.640625 2.890625 -4.0q0.46875 -1.546875 0.46875 -5.890625l0 -2.40625zm22.644531 24.9375l13.7968445 1.671875q0.34375 2.40625 1.578125 3.3125q1.71875 1.28125 5.421875 1.28125q4.71875 0 7.09375 -1.421875q1.578125 -0.9375 2.40625 -3.046875q0.546875 -1.5 0.546875 -5.546875l0 -6.65625q-5.40625 7.390625 -13.65625 7.390625q-9.203125 0 -14.5624695 -7.78125q-4.21875 -6.140625 -4.21875 -15.296875q0 -11.46875 5.5155945 -17.53125q5.53125 -6.0625 13.734375 -6.0625q8.46875 0 13.96875 7.4375l0 -6.40625l11.296875 0l0 40.953125q0 8.078125 -1.328125 12.078125q-1.328125 4.0 -3.734375 6.265625q-2.40625 2.28125 -6.4375 3.5625q-4.015625 1.296875 -10.15625 1.296875q-11.59375 0 -16.453125 -3.96875q-4.8593445 -3.96875 -4.8593445 -10.078125q0 -0.59375 0.046875 -1.453125zm10.7812195 -26.78125q0 7.265625 2.8125 10.640625q2.8125 3.375 6.9375 3.375q4.4375 0 7.484375 -3.453125q3.046875 -3.46875 3.046875 -10.265625q0 -7.078125 -2.921875 -10.515625q-2.921875 -3.4375 -7.390625 -3.4375q-4.34375 0 -7.15625 3.375q-2.8125 3.359375 -2.8125 10.28125zm70.51953 9.234375l12.03125 2.03125q-2.328125 6.609375 -7.34375 10.078125q-5.0 3.453125 -12.515625 3.453125q-11.90625 0 -17.609375 -7.78125q-4.515625 -6.234375 -4.515625 -15.71875q0 -11.34375 5.921875 -17.765625q5.9375 -6.4375 15.0 -6.4375q10.1875 0 16.0625 6.734375q5.890625 6.71875 5.640625 20.59375l-30.25 0q0.125 5.375 2.921875 8.359375q2.796875 2.984375 6.953125 2.984375q2.84375 0 4.765625 -1.546875q1.9375 -1.546875 2.9375 -4.984375zm0.6875 -12.203125q-0.140625 -5.234375 -2.71875 -7.953125q-2.578125 -2.734375 -6.265625 -2.734375q-3.953125 0 -6.53125 2.875q-2.578125 2.875 -2.53125 7.8125l18.046875 0z" fill-rule="nonzero"/><path fill="#000000" d="m279.16763 712.67053l-13.828125 0l-5.5 -14.3125l-25.187485 0l-5.1875 14.3125l-13.5 0l24.53125 -63.0l13.453125 0l25.218735 63.0zm-23.406235 -24.921875l-8.6875 -23.375l-8.5 23.375l17.1875 0zm39.34764 24.921875l-18.390625 -45.640625l12.6875 0l8.59375 23.296875l2.484375 7.78125q0.984375 -2.96875 1.25 -3.921875q0.59375 -1.921875 1.28125 -3.859375l8.6875 -23.296875l12.421875 0l-18.140625 45.640625l-10.875 0zm45.42578 -31.71875l-10.953125 -1.96875q1.84375 -6.625 6.34375 -9.796875q4.515625 -3.1875 13.421875 -3.1875q8.078125 0 12.03125 1.921875q3.953125 1.90625 5.5625 4.859375q1.609375 2.9375 1.609375 10.796875l-0.125 14.09375q0 6.015625 0.578125 8.875q0.578125 2.859375 2.171875 6.125l-11.953125 0q-0.46875 -1.203125 -1.15625 -3.5625q-0.296875 -1.078125 -0.4375 -1.421875q-3.09375 3.0 -6.625 4.515625q-3.515625 1.5 -7.5 1.5q-7.046875 0 -11.109375 -3.828125q-4.0625 -3.828125 -4.0625 -9.671875q0 -3.859375 1.84375 -6.890625q1.84375 -3.03125 5.171875 -4.640625q3.34375 -1.609375 9.609375 -2.8125q8.46875 -1.59375 11.734375 -2.96875l0 -1.203125q0 -3.484375 -1.71875 -4.953125q-1.71875 -1.484375 -6.484375 -1.484375q-3.234375 0 -5.046875 1.265625q-1.796875 1.265625 -2.90625 4.4375zm16.15625 9.796875q-2.328125 0.78125 -7.359375 1.859375q-5.015625 1.0625 -6.5625 2.09375q-2.359375 1.6875 -2.359375 4.265625q0 2.53125 1.890625 4.375q1.890625 1.84375 4.8125 1.84375q3.265625 0 6.21875 -2.140625q2.203125 -1.640625 2.890625 -4.0q0.46875 -1.546875 0.46875 -5.890625l0 -2.40625zm23.753906 -29.90625l0 -11.171875l12.078125 0l0 11.171875l-12.078125 0zm0 51.828125l0 -45.640625l12.078125 0l0 45.640625l-12.078125 0zm24.449219 0l0 -63.0l12.078125 0l0 63.0l-12.078125 0zm33.48047 -31.71875l-10.953125 -1.96875q1.84375 -6.625 6.34375 -9.796875q4.515625 -3.1875 13.421875 -3.1875q8.078125 0 12.03125 1.921875q3.953125 1.90625 5.5625 4.859375q1.609375 2.9375 1.609375 10.796875l-0.125 14.09375q0 6.015625 0.578125 8.875q0.578125 2.859375 2.171875 6.125l-11.953125 0q-0.46875 -1.203125 -1.15625 -3.5625q-0.296875 -1.078125 -0.4375 -1.421875q-3.09375 3.0 -6.625 4.515625q-3.515625 1.5 -7.5 1.5q-7.046875 0 -11.109375 -3.828125q-4.0625 -3.828125 -4.0625 -9.671875q0 -3.859375 1.84375 -6.890625q1.84375 -3.03125 5.171875 -4.640625q3.34375 -1.609375 9.609375 -2.8125q8.46875 -1.59375 11.734375 -2.96875l0 -1.203125q0 -3.484375 -1.71875 -4.953125q-1.71875 -1.484375 -6.484375 -1.484375q-3.234375 0 -5.046875 1.265625q-1.796875 1.265625 -2.90625 4.4375zm16.15625 9.796875q-2.328125 0.78125 -7.359375 1.859375q-5.015625 1.0625 -6.5625 2.09375q-2.359375 1.6875 -2.359375 4.265625q0 2.53125 1.890625 4.375q1.890625 1.84375 4.8125 1.84375q3.265625 0 6.21875 -2.140625q2.203125 -1.640625 2.890625 -4.0q0.46875 -1.546875 0.46875 -5.890625l0 -2.40625zm23.238281 21.921875l0 -63.0l12.078125 0l0 22.6875q5.59375 -6.359375 13.234375 -6.359375q8.34375 0 13.7968445 6.046875q5.453125 6.03125 5.453125 17.328125q0 11.6875 -5.5625 18.015625q-5.5624695 6.3125 -13.5155945 6.3125q-3.90625 0 -7.71875 -1.953125q-3.796875 -1.953125 -6.546875 -5.78125l0 6.703125l-11.21875 0zm12.0 -23.8125q0 7.09375 2.234375 10.484375q3.125 4.8125 8.328125 4.8125q4.0 0 6.8125 -3.40625q2.8125 -3.421875 2.8125 -10.765625q0 -7.828125 -2.84375 -11.28125q-2.828125 -3.453125 -7.25 -3.453125q-4.34375 0 -7.21875 3.375q-2.875 3.359375 -2.875 10.234375zm42.2695 23.8125l0 -63.0l12.078125 0l0 63.0l-12.078125 0zm50.88672 -14.53125l12.03125 2.03125q-2.328125 6.609375 -7.34375 10.078125q-5.0 3.453125 -12.515625 3.453125q-11.90625 0 -17.609375 -7.78125q-4.515625 -6.234375 -4.515625 -15.71875q0 -11.34375 5.921875 -17.765625q5.9375 -6.4375 15.0 -6.4375q10.1875 0 16.0625 6.734375q5.890625 6.71875 5.640625 20.59375l-30.25 0q0.125 5.375 2.921875 8.359375q2.796875 2.984375 6.953125 2.984375q2.84375 0 4.765625 -1.546875q1.9375 -1.546875 2.9375 -4.984375zm0.6875 -12.203125q-0.140625 -5.234375 -2.71875 -7.953125q-2.578125 -2.734375 -6.265625 -2.734375q-3.953125 0 -6.53125 2.875q-2.578125 2.875 -2.53125 7.8125l18.046875 0z" fill-rule="nonzero"/><path fill="#000000" fill-opacity="0.0" d="m182.98163 486.5643l98.76904 -280.7113l72.77426 165.30708l94.61154 -102.92651l217.2887 202.73492" fill-rule="evenodd"/><path stroke="#999999" stroke-width="8.0" stroke-linejoin="round" stroke-linecap="butt" d="m182.98163 486.5643l98.76904 -280.7113l72.77426 165.30708l94.61154 -102.92651l217.2887 202.73492" fill-rule="evenodd"/><path fill="#cfe2f3" d="m480.0 209.49081l0 0c0 -37.033524 30.021606 -67.055115 67.055115 -67.055115l0 0c17.784119 0 34.839844 7.0647125 47.41516 19.639984c12.575256 12.575272 19.639954 29.631012 19.639954 47.41513l0 0c0 37.033524 -30.021606 67.055115 -67.055115 67.055115l0 0c-37.03351 0 -67.055115 -30.021591 -67.055115 -67.055115z" fill-rule="evenodd"/><path stroke="#999999" stroke-width="8.0" stroke-linejoin="round" stroke-linecap="butt" d="m480.0 209.49081l0 0c0 -37.033524 30.021606 -67.055115 67.055115 -67.055115l0 0c17.784119 0 34.839844 7.0647125 47.41516 19.639984c12.575256 12.575272 19.639954 29.631012 19.639954 47.41513l0 0c0 37.033524 -30.021606 67.055115 -67.055115 67.055115l0 0c-37.03351 0 -67.055115 -30.021591 -67.055115 -67.055115z" fill-rule="evenodd"/><path fill="#000000" fill-opacity="0.0" d="m124.75328 155.08533l0 0c0 -36.845818 29.86943 -66.71525 66.71524 -66.71525l432.14435 0c17.69397 0 34.66327 7.028908 47.174805 19.540443c12.511536 12.511536 19.540405 29.48082 19.540405 47.174805l0 266.85297c0 36.845825 -29.869385 66.71524 -66.71521 66.71524l-432.14435 0c-36.84581 0 -66.71524 -29.869415 -66.71524 -66.71524z" fill-rule="evenodd"/><path stroke="#000000" stroke-width="12.0" stroke-linejoin="round" stroke-linecap="butt" d="m124.75328 155.08533l0 0c0 -36.845818 29.86943 -66.71525 66.71524 -66.71525l432.14435 0c17.69397 0 34.66327 7.028908 47.174805 19.540443c12.511536 12.511536 19.540405 29.48082 19.540405 47.174805l0 266.85297c0 36.845825 -29.869385 66.71524 -66.71521 66.71524l-432.14435 0c-36.84581 0 -66.71524 -29.869415 -66.71524 -66.71524z" fill-rule="evenodd"/></g></svg>