<svg version="1.1" viewBox="0.0 0.0 785.0839895013123 784.7322834645669" fill="none" stroke="none" stroke-linecap="square" stroke-miterlimit="10" xmlns:xlink="http://www.w3.org/1999/xlink" xmlns="http://www.w3.org/2000/svg"><clipPath id="p.0"><path d="m0 0l785.084 0l0 784.7323l-785.084 0l0 -784.7323z" clip-rule="nonzero"/></clipPath><g clip-path="url(#p.0)"><path fill="#000000" fill-opacity="0.0" d="m0 0l785.084 0l0 784.7323l-785.084 0z" fill-rule="evenodd"/><path fill="#cc0000" d="m35.959316 748.41437l0 -252.6929l252.6929 252.6929z" fill-rule="evenodd"/><path stroke="#cc0000" stroke-width="1.0" stroke-linejoin="round" stroke-linecap="butt" d="m35.959316 748.41437l0 -252.6929l252.6929 252.6929z" fill-rule="evenodd"/><path fill="#cc0000" d="m599.71625 748.4029l-252.69293 0l252.69293 -252.69293z" fill-rule="evenodd"/><path stroke="#cc0000" stroke-width="1.0" stroke-linejoin="round" stroke-linecap="butt" d="m599.71625 748.4029l-252.69293 0l252.69293 -252.69293z" fill-rule="evenodd"/><path fill="#cc0000" d="m35.947823 184.65749l252.69293 0l-252.69293 252.69292z" fill-rule="evenodd"/><path stroke="#cc0000" stroke-width="1.0" stroke-linejoin="round" stroke-linecap="butt" d="m35.947823 184.65749l252.69293 0l-252.69293 252.69292z" fill-rule="evenodd"/><path fill="#cc0000" d="m599.7047 184.64598l0 252.69292l-252.6929 -252.69292z" fill-rule="evenodd"/><path stroke="#cc0000" stroke-width="1.0" stroke-linejoin="round" stroke-linecap="butt" d="m599.7047 184.64598l0 252.69292l-252.6929 -252.69292z" fill-rule="evenodd"/><path fill="#cc0000" d="m584.5236 272.03754l-425.92123 425.92126l-72.62992 -72.629944l425.92126 -425.92126z" fill-rule="evenodd"/><path stroke="#cc0000" stroke-width="1.0" stroke-linejoin="round" stroke-linecap="butt" d="m584.5236 272.03754l-425.92123 425.92126l-72.62992 -72.629944l425.92126 -425.92126z" fill-rule="evenodd"/><path fill="#cc0000" d="m140.93309 217.19238l425.92126 425.92126l-72.629944 72.62988l-425.92126 -425.92123z" fill-rule="evenodd"/><path stroke="#cc0000" stroke-width="1.0" stroke-linejoin="round" stroke-linecap="butt" d="m140.93309 217.19238l425.92126 425.92126l-72.629944 72.62988l-425.92126 -425.92123z" fill-rule="evenodd"/><path fill="#cc0000" d="m317.57874 77.44226c36.77823 -100.95801 180.21326 0 0 129.80315c-180.21326 -129.80315 -36.7782 -230.76115 0 -129.80315z" fill-rule="evenodd"/><path stroke="#cc0000" stroke-width="1.0" stroke-linejoin="round" stroke-linecap="butt" d="m317.57874 77.44226c36.77823 -100.95801 180.21326 0 0 129.80315c-180.21326 -129.80315 -36.7782 -230.76115 0 -129.80315z" fill-rule="evenodd"/><path fill="#cc0000" d="m708.0103 466.46835c100.95801 36.7782 0 180.21323 -129.8031 0c129.8031 -180.21326 230.76111 -36.77823 129.8031 0z" fill-rule="evenodd"/><path stroke="#cc0000" stroke-width="1.0" stroke-linejoin="round" stroke-linecap="butt" d="m708.0103 466.46835c100.95801 36.7782 0 180.21323 -129.8031 0c129.8031 -180.21326 230.76111 -36.77823 129.8031 0z" fill-rule="evenodd"/><path fill="#cc0000" d="m187.64961 184.85432l263.90552 0l0 211.65355l-263.90552 0z" fill-rule="evenodd"/><path stroke="#cc0000" stroke-width="1.0" stroke-linejoin="round" stroke-linecap="butt" d="m187.64961 184.85432l263.90552 0l0 211.65355l-263.90552 0z" fill-rule="evenodd"/><path fill="#cc0000" d="m599.7047 329.96457l0 263.9055l-211.65353 0l0 -263.9055z" fill-rule="evenodd"/><path stroke="#cc0000" stroke-width="1.0" stroke-linejoin="round" stroke-linecap="butt" d="m599.7047 329.96457l0 263.9055l-211.65353 0l0 -263.9055z" fill-rule="evenodd"/></g></svg>