<svg version="1.1" viewBox="0.0 0.0 100.0 119.06299212598425" fill="none" stroke="none" stroke-linecap="square" stroke-miterlimit="10" xmlns:xlink="http://www.w3.org/1999/xlink" xmlns="http://www.w3.org/2000/svg"><clipPath id="p.0"><path d="m0 0l100.0 0l0 119.062996l-100.0 0l0 -119.062996z" clip-rule="nonzero"/></clipPath><g clip-path="url(#p.0)"><path fill="#000000" fill-opacity="0.0" d="m0 0l100.0 0l0 119.062996l-100.0 0z" fill-rule="evenodd"/><path fill="#d9d9d9" d="m10.692913 14.980577l0 0c0 -7.23638 5.8662453 -13.102625 13.102625 -13.102625l52.40892 0l0 0c3.4750366 0 6.8077393 1.380451 9.264954 3.8376696c2.457222 2.4572186 3.8376694 5.789922 3.8376694 9.2649555l0 89.10184c0 7.2363815 -5.8662415 13.102623 -13.102623 13.102623l-52.40892 0c-7.2363796 0 -13.102625 -5.8662415 -13.102625 -13.102623z" fill-rule="evenodd"/><path stroke="#000000" stroke-width="1.0" stroke-linejoin="round" stroke-linecap="butt" d="m10.692913 14.980577l0 0c0 -7.23638 5.8662453 -13.102625 13.102625 -13.102625l52.40892 0l0 0c3.4750366 0 6.8077393 1.380451 9.264954 3.8376696c2.457222 2.4572186 3.8376694 5.789922 3.8376694 9.2649555l0 89.10184c0 7.2363815 -5.8662415 13.102623 -13.102623 13.102623l-52.40892 0c-7.2363796 0 -13.102625 -5.8662415 -13.102625 -13.102623z" fill-rule="evenodd"/><path fill="#ff0000" d="m46.0 59.531498l4.0 -7.1338615l4.0 7.1338615l-4.0 7.133854z" fill-rule="evenodd"/><path stroke="#ff0000" stroke-width="1.0" stroke-linejoin="round" stroke-linecap="butt" d="m46.0 59.531498l4.0 -7.1338615l4.0 7.1338615l-4.0 7.133854z" fill-rule="evenodd"/><path fill="#ff0000" d="m78.29396 91.62467l1.5118103 -2.6929169l1.5118179 2.6929169l-1.5118179 2.6929169z" fill-rule="evenodd"/><path stroke="#ff0000" stroke-width="1.0" stroke-linejoin="round" stroke-linecap="butt" d="m78.29396 91.62467l1.5118103 -2.6929169l1.5118179 2.6929169l-1.5118179 2.6929169z" fill-rule="evenodd"/><path fill="#ff0000" d="m18.0 25.847769l1.5118103 -2.692913l1.5118122 2.692913l-1.5118122 2.692913z" fill-rule="evenodd"/><path stroke="#ff0000" stroke-width="1.0" stroke-linejoin="round" stroke-linecap="butt" d="m18.0 25.847769l1.5118103 -2.692913l1.5118122 2.692913l-1.5118122 2.692913z" fill-rule="evenodd"/><path fill="#000000" fill-opacity="0.0" d="m7.3708973 0.06824147l22.393702 0l0 32.31496l-22.393702 0z" fill-rule="evenodd"/><path fill="#000000" d="m16.589647 19.30824l1.640625 -8.625l2.171875 0l1.609375 8.625l-1.765625 0l-0.28125 -1.828125l-1.265625 0l-0.296875 1.828125l-1.8125 0zm2.28125 -2.96875l0.90625 0l-0.453125 -3.359375l-0.453125 3.359375z" fill-rule="nonzero"/><path fill="#000000" fill-opacity="0.0" d="m92.57006 117.46372l-22.3937 0l0 -32.314964l22.3937 0z" fill-rule="evenodd"/><path fill="#000000" d="m83.35131 98.22372l-1.640625 8.625l-2.171875 0l-1.609375 -8.625l1.765625 0l0.28125 1.828125l1.265625 0l0.296875 -1.828125l1.8125 0zm-2.28125 2.96875l-0.90625 0l0.453125 3.359375l0.453125 -3.359375z" fill-rule="nonzero"/></g></svg>