<svg version="1.1" viewBox="0.0 0.0 100.0 119.06299212598425" fill="none" stroke="none" stroke-linecap="square" stroke-miterlimit="10" xmlns:xlink="http://www.w3.org/1999/xlink" xmlns="http://www.w3.org/2000/svg"><clipPath id="p.0"><path d="m0 0l100.0 0l0 119.062996l-100.0 0l0 -119.062996z" clip-rule="nonzero"/></clipPath><g clip-path="url(#p.0)"><path fill="#000000" fill-opacity="0.0" d="m0 0l100.0 0l0 119.062996l-100.0 0z" fill-rule="evenodd"/><path fill="#d9d9d9" d="m10.692913 14.980577l0 0c0 -7.23638 5.8662453 -13.102625 13.102625 -13.102625l52.40892 0l0 0c3.4750366 0 6.8077393 1.380451 9.264954 3.8376696c2.457222 2.4572186 3.8376694 5.789922 3.8376694 9.2649555l0 89.10184c0 7.2363815 -5.8662415 13.102623 -13.102623 13.102623l-52.40892 0c-7.2363796 0 -13.102625 -5.8662415 -13.102625 -13.102623z" fill-rule="evenodd"/><path stroke="#000000" stroke-width="1.0" stroke-linejoin="round" stroke-linecap="butt" d="m10.692913 14.980577l0 0c0 -7.23638 5.8662453 -13.102625 13.102625 -13.102625l52.40892 0l0 0c3.4750366 0 6.8077393 1.380451 9.264954 3.8376696c2.457222 2.4572186 3.8376694 5.789922 3.8376694 9.2649555l0 89.10184c0 7.2363815 -5.8662415 13.102623 -13.102623 13.102623l-52.40892 0c-7.2363796 0 -13.102625 -5.8662415 -13.102625 -13.102623z" fill-rule="evenodd"/><path fill="#ff0000" d="m46.0 22.485565l4.0 -7.1338587l4.0 7.1338587l-4.0 7.1338577z" fill-rule="evenodd"/><path stroke="#ff0000" stroke-width="1.0" stroke-linejoin="round" stroke-linecap="butt" d="m46.0 22.485565l4.0 -7.1338587l4.0 7.1338587l-4.0 7.1338577z" fill-rule="evenodd"/><path fill="#ff0000" d="m46.0 94.632545l4.0 -7.1338577l4.0 7.1338577l-4.0 7.1338577z" fill-rule="evenodd"/><path stroke="#ff0000" stroke-width="1.0" stroke-linejoin="round" stroke-linecap="butt" d="m46.0 94.632545l4.0 -7.1338577l4.0 7.1338577l-4.0 7.1338577z" fill-rule="evenodd"/><path fill="#ff0000" d="m78.29396 91.62467l1.5118103 -2.6929169l1.5118179 2.6929169l-1.5118179 2.6929169z" fill-rule="evenodd"/><path stroke="#ff0000" stroke-width="1.0" stroke-linejoin="round" stroke-linecap="butt" d="m78.29396 91.62467l1.5118103 -2.6929169l1.5118179 2.6929169l-1.5118179 2.6929169z" fill-rule="evenodd"/><path fill="#ff0000" d="m18.0 25.847769l1.5118103 -2.692913l1.5118122 2.692913l-1.5118122 2.692913z" fill-rule="evenodd"/><path stroke="#ff0000" stroke-width="1.0" stroke-linejoin="round" stroke-linecap="butt" d="m18.0 25.847769l1.5118103 -2.692913l1.5118122 2.692913l-1.5118122 2.692913z" fill-rule="evenodd"/><path fill="#000000" fill-opacity="0.0" d="m7.3708973 0.06824147l22.393702 0l0 32.31496l-22.393702 0z" fill-rule="evenodd"/><path fill="#000000" d="m16.808397 19.30824l0 -1.25l2.0625 -3.1875q0.234375 -0.34375 0.4375 -0.671875q0.21875 -0.34375 0.34375 -0.671875q0.140625 -0.34375 0.140625 -0.71875q0 -0.375 -0.15625 -0.546875q-0.140625 -0.1875 -0.40625 -0.1875q-0.28125 0 -0.4375 0.15625q-0.15625 0.15625 -0.21875 0.421875q-0.0625 0.265625 -0.0625 0.609375l0 0.421875l-1.71875 0l0 -0.453125q0 -0.78125 0.234375 -1.375q0.25 -0.609375 0.78125 -0.953125q0.53125 -0.34375 1.390625 -0.34375q1.171875 0 1.75 0.609375q0.59375 0.59375 0.59375 1.671875q0 0.515625 -0.171875 0.96875q-0.15625 0.453125 -0.421875 0.875q-0.265625 0.421875 -0.578125 0.875l-1.578125 2.359375l2.515625 0l0 1.390625l-4.5 0z" fill-rule="nonzero"/><path fill="#000000" fill-opacity="0.0" d="m92.57006 117.46372l-22.3937 0l0 -32.314964l22.3937 0z" fill-rule="evenodd"/><path fill="#000000" d="m83.13256 98.22372l0 1.25l-2.0625 3.1875q-0.234375 0.34375 -0.4375 0.671875q-0.21875 0.34375 -0.34375 0.671875q-0.140625 0.34375 -0.140625 0.71875q0 0.375 0.15625 0.546875q0.140625 0.1875 0.40625 0.1875q0.28125 0 0.4375 -0.15625q0.15625 -0.15625 0.21875 -0.421875q0.0625 -0.265625 0.0625 -0.609375l0 -0.421875l1.71875 0l0 0.453125q0 0.78125 -0.234375 1.375q-0.25 0.609375 -0.78125 0.953125q-0.53125 0.34375 -1.390625 0.34375q-1.171875 0 -1.75 -0.609375q-0.59375 -0.59375 -0.59375 -1.671875q0 -0.515625 0.171875 -0.96875q0.15625 -0.453125 0.421875 -0.875q0.265625 -0.421875 0.578125 -0.875l1.578125 -2.359375l-2.515625 0l0 -1.390625l4.5 0z" fill-rule="nonzero"/></g></svg>