<svg version="1.1" viewBox="0.0 0.0 100.0 100.0" fill="none" stroke="none" stroke-linecap="square" stroke-miterlimit="10" xmlns:xlink="http://www.w3.org/1999/xlink" xmlns="http://www.w3.org/2000/svg"><clipPath id="p.0"><path d="m0 0l100.0 0l0 100.0l-100.0 0l0 -100.0z" clip-rule="nonzero"/></clipPath><g clip-path="url(#p.0)"><path fill="#000000" fill-opacity="0.0" d="m0 0l100.0 0l0 100.0l-100.0 0z" fill-rule="evenodd"/><path fill="red" d="m15.701924 32.333076l16.631153 -16.631153l17.666924 17.666924l17.666924 -17.666924l16.63115 16.631153l-17.666924 17.666924l17.666924 17.666924l-16.63115 16.63115l-17.666924 -17.666924l-17.666924 17.666924l-16.631153 -16.63115l17.666924 -17.666924z" fill-rule="evenodd"/><path stroke="#000000" stroke-width="1.0" stroke-linejoin="round" stroke-linecap="butt" d="m15.701924 32.333076l16.631153 -16.631153l17.666924 17.666924l17.666924 -17.666924l16.63115 16.631153l-17.666924 17.666924l17.666924 17.666924l-16.63115 16.63115l-17.666924 -17.666924l-17.666924 17.666924l-16.631153 -16.63115l17.666924 -17.666924z" fill-rule="evenodd"/></g></svg>