<svg version="1.1" viewBox="0.0 0.0 189.91338582677164 189.18635170603673" fill="none" stroke="none" stroke-linecap="square" stroke-miterlimit="10" xmlns:xlink="http://www.w3.org/1999/xlink" xmlns="http://www.w3.org/2000/svg"><clipPath id="p.0"><path d="m0 0l189.91339 0l0 189.18636l-189.91339 0l0 -189.18636z" clip-rule="nonzero"/></clipPath><g clip-path="url(#p.0)"><path fill="#000000" fill-opacity="0.0" d="m0 0l189.91339 0l0 189.18636l-189.91339 0z" fill-rule="evenodd"/><path fill="#000000" fill-opacity="0.0" d="m-19.940945 7.3333335l229.79527 0l0 174.51968l-229.79527 0z" fill-rule="evenodd"/><path fill="#ffffff" d="m71.17544 128.77583l-62.812496 -27.312492l0 -15.125l62.812496 -27.187504l0 17.812504l-43.812496 16.75l43.812496 17.375l0 17.687492zm5.8125 12.0l22.6875 -94.75l13.187508 0l-22.937508 94.75l-12.9375 0zm41.687508 -11.9375l0 -17.687492l43.875 -17.25l-43.875 -17.0625l0 -17.562504l62.875 27.187504l0 15.0l-62.875 27.374992z" fill-rule="nonzero"/></g></svg>