<svg version="1.1" viewBox="0.0 0.0 815.0813648293963 811.9711286089239" fill="none" stroke="none" stroke-linecap="square" stroke-miterlimit="10" xmlns:xlink="http://www.w3.org/1999/xlink" xmlns="http://www.w3.org/2000/svg"><clipPath id="p.0"><path d="m0 0l815.08136 0l0 811.9711l-815.08136 0l0 -811.9711z" clip-rule="nonzero"/></clipPath><g clip-path="url(#p.0)"><path fill="#000000" fill-opacity="0.0" d="m0 0l815.08136 0l0 811.9711l-815.08136 0z" fill-rule="evenodd"/><path fill="#ffffff" d="m107.75197 167.7441l0 0c0 -6.4621735 5.2386246 -11.70079 11.70079 -11.70079l0 0l0 0c3.103241 0 6.079376 1.2327576 8.273705 3.4270782c2.1943283 2.194336 3.4270859 5.170471 3.4270859 8.273712l0 528.315c0 6.462158 -5.2386246 11.700745 -11.70079 11.700745l0 0l0 0c-6.462166 0 -11.70079 -5.2385864 -11.70079 -11.700745z" fill-rule="evenodd"/><path stroke="#ffffff" stroke-width="24.0" stroke-linejoin="round" stroke-linecap="butt" d="m107.75197 167.7441l0 0c0 -6.4621735 5.2386246 -11.70079 11.70079 -11.70079l0 0l0 0c3.103241 0 6.079376 1.2327576 8.273705 3.4270782c2.1943283 2.194336 3.4270859 5.170471 3.4270859 8.273712l0 528.315c0 6.462158 -5.2386246 11.700745 -11.70079 11.700745l0 0l0 0c-6.462166 0 -11.70079 -5.2385864 -11.70079 -11.700745z" fill-rule="evenodd"/><path fill="#ffffff" d="m636.06696 369.51837l0 0c0 -6.462158 5.2385864 -11.700775 11.700745 -11.700775l0 0l0 0c3.1032715 0 6.0794067 1.2327576 8.273743 3.427063c2.194275 2.194336 3.427063 5.170471 3.427063 8.273712l0 326.5512c0 6.462158 -5.2386475 11.700745 -11.700806 11.700745l0 0l0 0c-6.462158 0 -11.700745 -5.2385864 -11.700745 -11.700745z" fill-rule="evenodd"/><path stroke="#ffffff" stroke-width="24.0" stroke-linejoin="round" stroke-linecap="butt" d="m636.06696 369.51837l0 0c0 -6.462158 5.2385864 -11.700775 11.700745 -11.700775l0 0l0 0c3.1032715 0 6.0794067 1.2327576 8.273743 3.427063c2.194275 2.194336 3.427063 5.170471 3.427063 8.273712l0 326.5512c0 6.462158 -5.2386475 11.700745 -11.700806 11.700745l0 0l0 0c-6.462158 0 -11.700745 -5.2385864 -11.700745 -11.700745z" fill-rule="evenodd"/><path fill="#ffffff" d="m647.7677 684.3583l0 0c6.462158 0 11.700806 5.2385864 11.700806 11.700806l0 0l0 0c0 3.1032104 -1.2327881 6.0793457 -3.427063 8.273682c-2.194336 2.194336 -5.170471 3.427063 -8.273743 3.427063l-528.31494 0c-6.462166 0 -11.70079 -5.2385864 -11.70079 -11.700745l0 0l0 0c0 -6.462219 5.2386246 -11.700806 11.70079 -11.700806z" fill-rule="evenodd"/><path stroke="#ffffff" stroke-width="24.0" stroke-linejoin="round" stroke-linecap="butt" d="m647.7677 684.3583l0 0c6.462158 0 11.700806 5.2385864 11.700806 11.700806l0 0l0 0c0 3.1032104 -1.2327881 6.0793457 -3.427063 8.273682c-2.194336 2.194336 -5.170471 3.427063 -8.273743 3.427063l-528.31494 0c-6.462166 0 -11.70079 -5.2385864 -11.70079 -11.700745l0 0l0 0c0 -6.462219 5.2386246 -11.700806 11.70079 -11.700806z" fill-rule="evenodd"/><path fill="#ffffff" d="m706.89355 88.098526l0 0c4.566162 -4.566139 11.969299 -4.566139 16.535461 0l0 0l0 0c2.192749 2.1927338 3.4246216 5.1667175 3.4246216 8.267715c0 3.1009903 -1.2318726 6.0749817 -3.4246216 8.267715l-281.41733 281.4173c-4.5661316 4.5661316 -11.969299 4.5661316 -16.53543 0l0 0l0 0c-4.5661316 -4.5661316 -4.5661316 -11.969299 0 -16.53543z" fill-rule="evenodd"/><path stroke="#ffffff" stroke-width="1.0" stroke-linejoin="round" stroke-linecap="butt" d="m706.89355 88.098526l0 0c4.566162 -4.566139 11.969299 -4.566139 16.535461 0l0 0l0 0c2.192749 2.1927338 3.4246216 5.1667175 3.4246216 8.267715c0 3.1009903 -1.2318726 6.0749817 -3.4246216 8.267715l-281.41733 281.4173c-4.5661316 4.5661316 -11.969299 4.5661316 -16.53543 0l0 0l0 0c-4.5661316 -4.5661316 -4.5661316 -11.969299 0 -16.53543z" fill-rule="evenodd"/><path fill="#ffffff" d="m703.7257 96.985565l0 0c0 -6.462166 5.2386475 -11.70079 11.700806 -11.70079l0 0l0 0c3.1032104 0 6.0794067 1.2327576 8.273682 3.4270859c2.194336 2.1943207 3.427124 5.1704636 3.427124 8.273705l0 208.18896c0 6.4621887 -5.2386475 11.700806 -11.700806 11.700806l0 0l0 0c-6.462158 0 -11.700806 -5.238617 -11.700806 -11.700806z" fill-rule="evenodd"/><path stroke="#ffffff" stroke-width="1.0" stroke-linejoin="round" stroke-linecap="butt" d="m703.7257 96.985565l0 0c0 -6.462166 5.2386475 -11.70079 11.700806 -11.70079l0 0l0 0c3.1032104 0 6.0794067 1.2327576 8.273682 3.4270859c2.194336 2.1943207 3.427124 5.1704636 3.427124 8.273705l0 208.18896c0 6.4621887 -5.2386475 11.700806 -11.700806 11.700806l0 0l0 0c-6.462158 0 -11.700806 -5.238617 -11.700806 -11.700806z" fill-rule="evenodd"/><path fill="#ffffff" d="m715.4265 85.284775l0 0c6.462158 0 11.700806 5.2386246 11.700806 11.70079l0 0l0 0c0 3.103241 -1.2327881 6.079384 -3.427124 8.273705c-2.194275 2.1943207 -5.170471 3.4270782 -8.273682 3.4270782l-208.189 0c-6.462158 0 -11.700775 -5.238617 -11.700775 -11.700783l0 0l0 0c0 -6.462166 5.238617 -11.70079 11.700775 -11.70079z" fill-rule="evenodd"/><path stroke="#ffffff" stroke-width="1.0" stroke-linejoin="round" stroke-linecap="butt" d="m715.4265 85.284775l0 0c6.462158 0 11.700806 5.2386246 11.700806 11.70079l0 0l0 0c0 3.103241 -1.2327881 6.079384 -3.427124 8.273705c-2.194275 2.1943207 -5.170471 3.4270782 -8.273682 3.4270782l-208.189 0c-6.462158 0 -11.700775 -5.238617 -11.700775 -11.700783l0 0l0 0c0 -6.462166 5.238617 -11.70079 11.700775 -11.70079z" fill-rule="evenodd"/><path fill="#ffffff" d="m446.00394 156.0433l0 0c6.462158 0 11.700775 5.238617 11.700775 11.70079l0 0l0 0c0 3.103241 -1.2327576 6.079376 -3.427063 8.273712c-2.194336 2.1943207 -5.170471 3.4270782 -8.273712 3.4270782l-326.55118 0c-6.462166 0 -11.70079 -5.238617 -11.70079 -11.70079l0 0l0 0c0 -6.4621735 5.2386246 -11.70079 11.70079 -11.70079z" fill-rule="evenodd"/><path stroke="#ffffff" stroke-width="24.0" stroke-linejoin="round" stroke-linecap="butt" d="m446.00394 156.0433l0 0c6.462158 0 11.700775 5.238617 11.700775 11.70079l0 0l0 0c0 3.103241 -1.2327576 6.079376 -3.427063 8.273712c-2.194336 2.1943207 -5.170471 3.4270782 -8.273712 3.4270782l-326.55118 0c-6.462166 0 -11.70079 -5.238617 -11.70079 -11.70079l0 0l0 0c0 -6.4621735 5.2386246 -11.70079 11.70079 -11.70079z" fill-rule="evenodd"/></g></svg>