<svg version="1.1" viewBox="0.0 0.0 815.0813648293963 811.9711286089239" fill="none" stroke="none" stroke-linecap="square" stroke-miterlimit="10" xmlns:xlink="http://www.w3.org/1999/xlink" xmlns="http://www.w3.org/2000/svg"><clipPath id="p.0"><path d="m0 0l815.08136 0l0 811.9711l-815.08136 0l0 -811.9711z" clip-rule="nonzero"/></clipPath><g clip-path="url(#p.0)"><path fill="#000000" fill-opacity="0.0" d="m0 0l815.08136 0l0 811.9711l-815.08136 0z" fill-rule="evenodd"/><path fill="#ff9900" d="m812.76904 405.98557l-163.52649 58.15387l0 -116.30774zm-118.71692 -286.54898l-74.488525 156.76694l-82.240845 -82.240906zm-286.51144 -118.679375l58.15387 163.52647l-116.30774 0zm-286.54895 118.679375l156.76692 74.526024l-82.24089 82.240906zm-118.67938 286.54898l163.52649 -58.15387l0 116.30774zm118.67938 286.51144l74.52603 -156.72943l82.24089 82.240906zm286.54895 118.71692l-58.15387 -163.52649l116.30774 0zm286.51144 -118.71692l-156.72937 -74.488525l82.240845 -82.240906zm-489.1256 -286.51144l0 0c0 -111.90073 90.71344 -202.61418 202.61417 -202.61418c111.90073 0 202.61417 90.713455 202.61417 202.61418c0 111.90073 -90.71344 202.61417 -202.61417 202.61417c-111.90073 0 -202.61417 -90.71344 -202.61417 -202.61417z" fill-rule="evenodd"/><path stroke="#ff0000" stroke-width="1.0" stroke-linejoin="round" stroke-linecap="butt" d="m812.76904 405.98557l-163.52649 58.15387l0 -116.30774zm-118.71692 -286.54898l-74.488525 156.76694l-82.240845 -82.240906zm-286.51144 -118.679375l58.15387 163.52647l-116.30774 0zm-286.54895 118.679375l156.76692 74.526024l-82.24089 82.240906zm-118.67938 286.54898l163.52649 -58.15387l0 116.30774zm118.67938 286.51144l74.52603 -156.72943l82.24089 82.240906zm286.54895 118.71692l-58.15387 -163.52649l116.30774 0zm286.51144 -118.71692l-156.72937 -74.488525l82.240845 -82.240906zm-489.1256 -286.51144l0 0c0 -111.90073 90.71344 -202.61418 202.61417 -202.61418c111.90073 0 202.61417 90.713455 202.61417 202.61418c0 111.90073 -90.71344 202.61417 -202.61417 202.61417c-111.90073 0 -202.61417 -90.71344 -202.61417 -202.61417z" fill-rule="evenodd"/></g></svg>