<svg version="1.1" viewBox="0.0 0.0 100.0 119.06299212598425" fill="none" stroke="none" stroke-linecap="square" stroke-miterlimit="10" xmlns:xlink="http://www.w3.org/1999/xlink" xmlns="http://www.w3.org/2000/svg"><clipPath id="p.0"><path d="m0 0l100.0 0l0 119.062996l-100.0 0l0 -119.062996z" clip-rule="nonzero"/></clipPath><g clip-path="url(#p.0)"><path fill="#000000" fill-opacity="0.0" d="m0 0l100.0 0l0 119.062996l-100.0 0z" fill-rule="evenodd"/><path fill="#d9d9d9" d="m10.692913 14.980577l0 0c0 -7.23638 5.8662453 -13.102625 13.102625 -13.102625l52.40892 0l0 0c3.4750366 0 6.8077393 1.380451 9.264954 3.8376696c2.457222 2.4572186 3.8376694 5.789922 3.8376694 9.2649555l0 89.10184c0 7.2363815 -5.8662415 13.102623 -13.102623 13.102623l-52.40892 0c-7.2363796 0 -13.102625 -5.8662415 -13.102625 -13.102623z" fill-rule="evenodd"/><path stroke="#000000" stroke-width="1.0" stroke-linejoin="round" stroke-linecap="butt" d="m10.692913 14.980577l0 0c0 -7.23638 5.8662453 -13.102625 13.102625 -13.102625l52.40892 0l0 0c3.4750366 0 6.8077393 1.380451 9.264954 3.8376696c2.457222 2.4572186 3.8376694 5.789922 3.8376694 9.2649555l0 89.10184c0 7.2363815 -5.8662415 13.102623 -13.102623 13.102623l-52.40892 0c-7.2363796 0 -13.102625 -5.8662415 -13.102625 -13.102623z" fill-rule="evenodd"/><path fill="#ff0000" d="m29.921259 22.485565l4.000002 -7.1338587l4.0 7.1338587l-4.0 7.1338577z" fill-rule="evenodd"/><path stroke="#ff0000" stroke-width="1.0" stroke-linejoin="round" stroke-linecap="butt" d="m29.921259 22.485565l4.000002 -7.1338587l4.0 7.1338587l-4.0 7.1338577z" fill-rule="evenodd"/><path fill="#ff0000" d="m61.90026 22.485565l4.0 -7.1338587l4.0 7.1338587l-4.0 7.1338577z" fill-rule="evenodd"/><path stroke="#ff0000" stroke-width="1.0" stroke-linejoin="round" stroke-linecap="butt" d="m61.90026 22.485565l4.0 -7.1338587l4.0 7.1338587l-4.0 7.1338577z" fill-rule="evenodd"/><path fill="#ff0000" d="m29.921259 94.632545l4.000002 -7.1338577l4.0 7.1338577l-4.0 7.1338577z" fill-rule="evenodd"/><path stroke="#ff0000" stroke-width="1.0" stroke-linejoin="round" stroke-linecap="butt" d="m29.921259 94.632545l4.000002 -7.1338577l4.0 7.1338577l-4.0 7.1338577z" fill-rule="evenodd"/><path fill="#ff0000" d="m61.90026 94.632545l4.0 -7.1338577l4.0 7.1338577l-4.0 7.1338577z" fill-rule="evenodd"/><path stroke="#ff0000" stroke-width="1.0" stroke-linejoin="round" stroke-linecap="butt" d="m61.90026 94.632545l4.0 -7.1338577l4.0 7.1338577l-4.0 7.1338577z" fill-rule="evenodd"/><path fill="#ff0000" d="m78.29396 91.62467l1.5118103 -2.6929169l1.5118179 2.6929169l-1.5118179 2.6929169z" fill-rule="evenodd"/><path stroke="#ff0000" stroke-width="1.0" stroke-linejoin="round" stroke-linecap="butt" d="m78.29396 91.62467l1.5118103 -2.6929169l1.5118179 2.6929169l-1.5118179 2.6929169z" fill-rule="evenodd"/><path fill="#ff0000" d="m18.0 25.847769l1.5118103 -2.692913l1.5118122 2.692913l-1.5118122 2.692913z" fill-rule="evenodd"/><path stroke="#ff0000" stroke-width="1.0" stroke-linejoin="round" stroke-linecap="butt" d="m18.0 25.847769l1.5118103 -2.692913l1.5118122 2.692913l-1.5118122 2.692913z" fill-rule="evenodd"/><path fill="#000000" fill-opacity="0.0" d="m7.3708973 0.06824147l22.393702 0l0 32.31496l-22.393702 0z" fill-rule="evenodd"/><path fill="#000000" d="m19.292772 19.30824l0 -1.9375l-2.65625 0l0 -1.3125l2.25 -5.375l2.0625 0l0 5.359375l0.796875 0l0 1.328125l-0.796875 0l0 1.9375l-1.65625 0zm-1.296875 -3.265625l1.296875 0l0 -3.59375l-1.296875 3.59375z" fill-rule="nonzero"/><path fill="#000000" fill-opacity="0.0" d="m92.57006 117.46372l-22.3937 0l0 -32.314964l22.3937 0z" fill-rule="evenodd"/><path fill="#000000" d="m80.648186 98.22372l0 1.9375l2.65625 0l0 1.3125l-2.25 5.375l-2.0625 0l0 -5.359375l-0.796875 0l0 -1.328125l0.796875 0l0 -1.9375l1.65625 0zm1.296875 3.265625l-1.296875 0l0 3.59375l1.296875 -3.59375z" fill-rule="nonzero"/></g></svg>