<svg version="1.1" viewBox="0.0 0.0 100.0 100.0" fill="none" stroke="none" stroke-linecap="square" stroke-miterlimit="10" xmlns:xlink="http://www.w3.org/1999/xlink" xmlns="http://www.w3.org/2000/svg"><clipPath id="p.0"><path d="m0 0l100.0 0l0 100.0l-100.0 0l0 -100.0z" clip-rule="nonzero"/></clipPath><g clip-path="url(#p.0)"><path fill="#000000" fill-opacity="0.0" d="m0 0l100.0 0l0 100.0l-100.0 0z" fill-rule="evenodd"/><path fill="red" d="m11.762467 23.254639l0 0c0 -1.2350559 1.0012102 -2.2362652 2.2362652 -2.2362652l72.31487 0c0.5930939 0 1.1618958 0.23560524 1.5812759 0.6549854c0.4193802 0.4193821 0.6549835 0.988184 0.6549835 1.5812798l0 8.94479c0 1.2350578 -1.0012054 2.236267 -2.2362595 2.236267l-72.31487 0c-1.235055 0 -2.2362652 -1.0012093 -2.2362652 -2.236267z" fill-rule="evenodd"/><path stroke="#000000" stroke-width="1.0" stroke-linejoin="round" stroke-linecap="butt" d="m11.762467 23.254639l0 0c0 -1.2350559 1.0012102 -2.2362652 2.2362652 -2.2362652l72.31487 0c0.5930939 0 1.1618958 0.23560524 1.5812759 0.6549854c0.4193802 0.4193821 0.6549835 0.988184 0.6549835 1.5812798l0 8.94479c0 1.2350578 -1.0012054 2.236267 -2.2362595 2.236267l-72.31487 0c-1.235055 0 -2.2362652 -1.0012093 -2.2362652 -2.236267z" fill-rule="evenodd"/><path fill="red" d="m11.450131 45.527603l0 0c0 -1.235054 1.0012102 -2.2362633 2.2362652 -2.2362633l72.31487 0c0.5930939 0 1.1618958 0.23560333 1.5812759 0.65498734c0.41938782 0.4193802 0.65499115 0.98818207 0.65499115 1.5812759l0 8.944794c0 1.235054 -1.0012131 2.2362633 -2.236267 2.2362633l-72.31487 0c-1.235055 0 -2.2362652 -1.0012093 -2.2362652 -2.2362633z" fill-rule="evenodd"/><path stroke="#000000" stroke-width="1.0" stroke-linejoin="round" stroke-linecap="butt" d="m11.450131 45.527603l0 0c0 -1.235054 1.0012102 -2.2362633 2.2362652 -2.2362633l72.31487 0c0.5930939 0 1.1618958 0.23560333 1.5812759 0.65498734c0.41938782 0.4193802 0.65499115 0.98818207 0.65499115 1.5812759l0 8.944794c0 1.235054 -1.0012131 2.2362633 -2.236267 2.2362633l-72.31487 0c-1.235055 0 -2.2362652 -1.0012093 -2.2362652 -2.2362633z" fill-rule="evenodd"/><path fill="red" d="m11.762467 67.80057l0 0c0 -1.235054 1.0012102 -2.2362595 2.2362652 -2.2362595l72.31487 0c0.5930939 0 1.1618958 0.23560333 1.5812759 0.6549835c0.4193802 0.4193802 0.6549835 0.98818207 0.6549835 1.5812759l0 8.944794c0 1.235054 -1.0012054 2.236267 -2.2362595 2.236267l-72.31487 0c-1.235055 0 -2.2362652 -1.0012131 -2.2362652 -2.236267z" fill-rule="evenodd"/><path stroke="#000000" stroke-width="1.0" stroke-linejoin="round" stroke-linecap="butt" d="m11.762467 67.80057l0 0c0 -1.235054 1.0012102 -2.2362595 2.2362652 -2.2362595l72.31487 0c0.5930939 0 1.1618958 0.23560333 1.5812759 0.6549835c0.4193802 0.4193802 0.6549835 0.98818207 0.6549835 1.5812759l0 8.944794c0 1.235054 -1.0012054 2.236267 -2.2362595 2.236267l-72.31487 0c-1.235055 0 -2.2362652 -1.0012131 -2.2362652 -2.236267z" fill-rule="evenodd"/></g></svg>