<svg version="1.1" viewBox="0.0 0.0 815.0813648293963 811.9711286089239" fill="none" stroke="none" stroke-linecap="square" stroke-miterlimit="10" xmlns:xlink="http://www.w3.org/1999/xlink" xmlns="http://www.w3.org/2000/svg"><clipPath id="p.0"><path d="m0 0l815.08136 0l0 811.9711l-815.08136 0l0 -811.9711z" clip-rule="nonzero"/></clipPath><g clip-path="url(#p.0)"><path fill="#000000" fill-opacity="0.0" d="m0 0l815.08136 0l0 811.9711l-815.08136 0z" fill-rule="evenodd"/><path fill="#ffe599" d="m608.5958 808.0971l0 0c-222.07938 0 -402.11026 -180.03088 -402.11026 -402.11023c0 -222.07936 180.03088 -402.11026 402.11026 -402.11026l0 0c-126.56717 94.925354 -201.05515 243.90132 -201.05515 402.11026c0 158.20892 74.487976 307.18488 201.05515 402.11023z" fill-rule="evenodd"/><path stroke="#999999" stroke-width="1.0" stroke-linejoin="round" stroke-linecap="butt" d="m608.5958 808.0971l0 0c-222.07938 0 -402.11026 -180.03088 -402.11026 -402.11023c0 -222.07936 180.03088 -402.11026 402.11026 -402.11026l0 0c-126.56717 94.925354 -201.05515 243.90132 -201.05515 402.11026c0 158.20892 74.487976 307.18488 201.05515 402.11023z" fill-rule="evenodd"/></g></svg>