<svg version="1.1" viewBox="0.0 0.0 815.0813648293963 811.9711286089239" fill="none" stroke="none" stroke-linecap="square" stroke-miterlimit="10" xmlns:xlink="http://www.w3.org/1999/xlink" xmlns="http://www.w3.org/2000/svg"><clipPath id="p.0"><path d="m0 0l815.08136 0l0 811.9711l-815.08136 0l0 -811.9711z" clip-rule="nonzero"/></clipPath><g clip-path="url(#p.0)"><path fill="#000000" fill-opacity="0.0" d="m0 0l815.08136 0l0 811.9711l-815.08136 0z" fill-rule="evenodd"/><path fill="#ffe599" d="m6.1076117 753.1666l401.43307 -694.3622l401.43307 694.3622z" fill-rule="evenodd"/><path stroke="#bf9000" stroke-width="8.0" stroke-linejoin="round" stroke-linecap="butt" d="m6.1076117 753.1666l401.43307 -694.3622l401.43307 694.3622z" fill-rule="evenodd"/><path fill="#999999" d="m262.35318 577.4655l-15.046875 -63.0l13.03125 0l9.484375 43.28125l11.515625 -43.28125l15.125 0l11.046875 44.0l9.671875 -44.0l12.796875 0l-15.296875 63.0l-13.484375 0l-12.546875 -47.09375l-12.5 47.09375l-13.796875 0zm69.65625 -23.46875q0 -6.015625 2.953125 -11.640625q2.96875 -5.625 8.40625 -8.59375q5.4375 -2.96875 12.140625 -2.96875q10.359375 0 16.96875 6.734375q6.625 6.71875 6.625 16.984375q0 10.359375 -6.6875 17.171875q-6.6875 6.8125 -16.828125 6.8125q-6.265625 0 -11.96875 -2.828125q-5.6875 -2.84375 -8.65625 -8.3125q-2.953125 -5.484375 -2.953125 -13.359375zm12.375 0.65625q0 6.78125 3.21875 10.390625q3.21875 3.609375 7.953125 3.609375q4.71875 0 7.921875 -3.609375q3.203125 -3.609375 3.203125 -10.484375q0 -6.703125 -3.203125 -10.3125q-3.203125 -3.609375 -7.921875 -3.609375q-4.734375 0 -7.953125 3.609375q-3.21875 3.609375 -3.21875 10.40625zm55.722656 22.8125l-12.078125 0l0 -45.640625l11.21875 0l0 6.5q2.875 -4.609375 5.171875 -6.0625q2.3125 -1.46875 5.234375 -1.46875q4.125 0 7.9375 2.28125l-3.734375 10.53125q-3.046875 -1.984375 -5.671875 -1.984375q-2.53125 0 -4.296875 1.40625q-1.765625 1.390625 -2.78125 5.046875q-1.0 3.65625 -1.0 15.296875l0 14.09375zm22.261719 0l0 -63.0l12.078125 0l0 33.4375l14.125 -16.078125l14.8750305 0l-15.5937805 16.671875l16.703156 28.96875l-13.0156555 0l-11.46875 -20.5l-5.625 5.890625l0 14.609375l-12.078125 0zm73.515656 0l0 -63.0l12.71875 0l0 63.0l-12.71875 0zm66.26172 0l-12.078125 0l0 -23.296875q0 -7.390625 -0.78125 -9.546875q-0.765625 -2.171875 -2.515625 -3.375q-1.734375 -1.203125 -4.171875 -1.203125q-3.140625 0 -5.640625 1.71875q-2.484375 1.71875 -3.40625 4.5625q-0.921875 2.828125 -0.921875 10.46875l0 20.671875l-12.078125 0l0 -45.640625l11.21875 0l0 6.703125q5.96875 -7.734375 15.03125 -7.734375q4.0 0 7.296875 1.453125q3.3125 1.4375 5.015625 3.671875q1.703125 2.234375 2.359375 5.078125q0.671875 2.828125 0.671875 8.109375l0 28.359375z" fill-rule="nonzero"/><path fill="#999999" d="m223.18716 683.4655l0 -63.0l20.40625 0q11.609375 0 15.125 0.953125q5.421875 1.421875 9.0625 6.171875q3.65625 4.734375 3.65625 12.265625q0 5.796875 -2.109375 9.75q-2.09375 3.953125 -5.34375 6.21875q-3.25 2.25 -6.59375 2.96875q-4.5625 0.90625 -13.1875 0.90625l-8.296875 0l0 23.765625l-12.71875 0zm12.71875 -52.34375l0 17.875l6.953125 0q7.53125 0 10.0625 -0.984375q2.53125 -0.984375 3.96875 -3.09375q1.4375 -2.109375 1.4375 -4.890625q0 -3.4375 -2.015625 -5.671875q-2.015625 -2.234375 -5.109375 -2.796875q-2.28125 -0.4375 -9.15625 -0.4375l-6.140625 0zm57.445312 52.34375l-12.078125 0l0 -45.640625l11.21875 0l0 6.5q2.875 -4.609375 5.171875 -6.0625q2.3125 -1.46875 5.234375 -1.46875q4.125 0 7.9375 2.28125l-3.734375 10.53125q-3.046875 -1.984375 -5.671875 -1.984375q-2.53125 0 -4.296875 1.40625q-1.765625 1.390625 -2.78125 5.046875q-1.0 3.65625 -1.0 15.296875l0 14.09375zm19.902344 -23.46875q0 -6.015625 2.953125 -11.640625q2.96875 -5.625 8.40625 -8.59375q5.4375 -2.96875 12.140625 -2.96875q10.359375 0 16.96875 6.734375q6.625 6.71875 6.625 16.984375q0 10.359375 -6.6875 17.171875q-6.6875 6.8125 -16.828125 6.8125q-6.265625 0 -11.96875 -2.828125q-5.6875 -2.84375 -8.65625 -8.3125q-2.953125 -5.484375 -2.953125 -13.359375zm12.375 0.65625q0 6.78125 3.21875 10.390625q3.21875 3.609375 7.953125 3.609375q4.71875 0 7.921875 -3.609375q3.203125 -3.609375 3.203125 -10.484375q0 -6.703125 -3.203125 -10.3125q-3.203125 -3.609375 -7.921875 -3.609375q-4.734375 0 -7.953125 3.609375q-3.21875 3.609375 -3.21875 10.40625zm43.05078 25.828125l13.796875 1.671875q0.34375 2.40625 1.578125 3.3125q1.71875 1.28125 5.421875 1.28125q4.71875 0 7.09375 -1.421875q1.578125 -0.9375 2.40625 -3.046875q0.546875 -1.5 0.546875 -5.546875l0 -6.65625q-5.40625 7.390625 -13.65625 7.390625q-9.203125 0 -14.5625 -7.78125q-4.21875 -6.140625 -4.21875 -15.296875q0 -11.46875 5.515625 -17.53125q5.53125 -6.0625 13.734375 -6.0625q8.46875 0 13.96875 7.4375l0 -6.40625l11.296875 0l0 40.953125q0 8.078125 -1.328125 12.078125q-1.328125 4.0 -3.734375 6.265625q-2.40625 2.28125 -6.4375 3.5625q-4.015625 1.296875 -10.15625 1.296875q-11.59375 0 -16.453125 -3.96875q-4.859375 -3.96875 -4.859375 -10.078125q0 -0.59375 0.046875 -1.453125zm10.78125 -26.78125q0 7.265625 2.8125 10.640625q2.8125 3.375 6.9375 3.375q4.4375 0 7.484375 -3.453125q3.046875 -3.46875 3.046875 -10.265625q0 -7.078125 -2.921875 -10.515625q-2.921875 -3.4375 -7.390625 -3.4375q-4.34375 0 -7.15625 3.375q-2.8125 3.359375 -2.8125 10.28125zm55.64453 23.765625l-12.078125 0l0 -45.640625l11.21875 0l0 6.5q2.875 -4.609375 5.171875 -6.0625q2.3125 -1.46875 5.234375 -1.46875q4.125 0 7.9375 2.28125l-3.734375 10.53125q-3.046875 -1.984375 -5.671875 -1.984375q-2.53125 0 -4.296875 1.40625q-1.765625 1.390625 -2.78125 5.046875q-1.0 3.65625 -1.0 15.296875l0 14.09375zm49.121124 -14.53125l12.03125 2.03125q-2.328125 6.609375 -7.34375 10.078125q-5.0 3.453125 -12.515625 3.453125q-11.90625 0 -17.609406 -7.78125q-4.515625 -6.234375 -4.515625 -15.71875q0 -11.34375 5.921875 -17.765625q5.9375305 -6.4375 15.0000305 -6.4375q10.1875 0 16.0625 6.734375q5.890625 6.71875 5.640625 20.59375l-30.25 0q0.125 5.375 2.921875 8.359375q2.796875 2.984375 6.953125 2.984375q2.84375 0 4.765625 -1.546875q1.9375 -1.546875 2.9375 -4.984375zm0.6875 -12.203125q-0.140625 -5.234375 -2.71875 -7.953125q-2.578125 -2.734375 -6.265625 -2.734375q-3.953125 0 -6.53125 2.875q-2.578125 2.875 -2.53125 7.8125l18.046875 0zm17.566406 13.71875l12.125 -1.859375q0.765625 3.53125 3.125 5.359375q2.375 1.828125 6.625 1.828125q4.6875 0 7.046875 -1.71875q1.59375 -1.203125 1.59375 -3.234375q0 -1.375 -0.859375 -2.265625q-0.90625 -0.859375 -4.046875 -1.59375q-14.609375 -3.21875 -18.515625 -5.890625q-5.421875 -3.6875 -5.421875 -10.265625q0 -5.9375 4.6875 -9.96875q4.6875 -4.046875 14.53125 -4.046875q9.359375 0 13.90625 3.0625q4.5625 3.046875 6.28125 9.015625l-11.390625 2.109375q-0.71875 -2.671875 -2.765625 -4.078125q-2.046875 -1.421875 -5.828125 -1.421875q-4.765625 0 -6.828125 1.328125q-1.375 0.953125 -1.375 2.453125q0 1.28125 1.203125 2.1875q1.640625 1.203125 11.28125 3.40625q9.640625 2.1875 13.46875 5.359375q3.78125 3.21875 3.78125 8.984375q0 6.265625 -5.25 10.78125q-5.234375 4.515625 -15.5 4.515625q-9.328125 0 -14.765625 -3.78125q-5.4375 -3.78125 -7.109375 -10.265625zm48.941406 0l12.125 -1.859375q0.765625 3.53125 3.125 5.359375q2.375 1.828125 6.625 1.828125q4.6875 0 7.046875 -1.71875q1.59375 -1.203125 1.59375 -3.234375q0 -1.375 -0.859375 -2.265625q-0.90625 -0.859375 -4.046875 -1.59375q-14.609375 -3.21875 -18.515625 -5.890625q-5.421875 -3.6875 -5.421875 -10.265625q0 -5.9375 4.6875 -9.96875q4.6875 -4.046875 14.53125 -4.046875q9.359375 0 13.90625 3.0625q4.5625 3.046875 6.28125 9.015625l-11.390625 2.109375q-0.71875 -2.671875 -2.765625 -4.078125q-2.046875 -1.421875 -5.828125 -1.421875q-4.765625 0 -6.828125 1.328125q-1.375 0.953125 -1.375 2.453125q0 1.28125 1.203125 2.1875q1.640625 1.203125 11.28125 3.40625q9.640625 2.1875 13.46875 5.359375q3.78125 3.21875 3.78125 8.984375q0 6.265625 -5.25 10.78125q-5.234375 4.515625 -15.5 4.515625q-9.328125 0 -14.765625 -3.78125q-5.4375 -3.78125 -7.109375 -10.265625z" fill-rule="nonzero"/><path fill="#999999" d="m276.99738 436.28815l0 0c0 -26.943726 18.455017 -50.381104 44.647125 -56.700684c26.192108 -6.31958 53.30426 6.123413 65.59085 30.102661c12.286591 23.979218 6.549774 53.25354 -13.878723 70.821686l-21.952545 -25.526794c8.63678 -7.4274597 11.062195 -19.804047 5.8676453 -29.941986c-5.194519 -10.137939 -16.657013 -15.39859 -27.7305 -12.726807c-11.073486 2.6717834 -18.875916 12.580658 -18.875916 23.971924z" fill-rule="evenodd"/><path stroke="#999999" stroke-width="1.0" stroke-linejoin="round" stroke-linecap="butt" d="m276.99738 436.28815l0 0c0 -26.943726 18.455017 -50.381104 44.647125 -56.700684c26.192108 -6.31958 53.30426 6.123413 65.59085 30.102661c12.286591 23.979218 6.549774 53.25354 -13.878723 70.821686l-21.952545 -25.526794c8.63678 -7.4274597 11.062195 -19.804047 5.8676453 -29.941986c-5.194519 -10.137939 -16.657013 -15.39859 -27.7305 -12.726807c-11.073486 2.6717834 -18.875916 12.580658 -18.875916 23.971924z" fill-rule="evenodd"/><path fill="#999999" d="m493.02197 258.96576l0 0c0 26.943695 -18.455017 50.381104 -44.647095 56.700684c-26.192108 6.31958 -53.30429 -6.1234436 -65.59088 -30.102661c-12.286591 -23.979218 -6.549774 -53.25357 13.878754 -70.8217l21.952515 25.526794c-8.636749 7.4274445 -11.062164 19.804062 -5.8676453 29.942001c5.194519 10.137939 16.657013 15.39859 27.7305 12.726807c11.073517 -2.671814 18.875916 -12.580658 18.875916 -23.971924z" fill-rule="evenodd"/><path stroke="#999999" stroke-width="1.0" stroke-linejoin="round" stroke-linecap="butt" d="m493.02197 258.96576l0 0c0 26.943695 -18.455017 50.381104 -44.647095 56.700684c-26.192108 6.31958 -53.30429 -6.1234436 -65.59088 -30.102661c-12.286591 -23.979218 -6.549774 -53.25357 13.878754 -70.8217l21.952515 25.526794c-8.636749 7.4274445 -11.062164 19.804062 -5.8676453 29.942001c5.194519 10.137939 16.657013 15.39859 27.7305 12.726807c11.073517 -2.671814 18.875916 -12.580658 18.875916 -23.971924z" fill-rule="evenodd"/><path fill="#999999" d="m335.97913 406.9589l0 0c-2.890503 -1.668396 -3.881073 -5.3640137 -2.2124634 -8.254395l70.03772 -121.32092c0.80126953 -1.3880005 2.1211548 -2.4009094 3.669281 -2.815857c1.5480957 -0.4149475 3.1976318 -0.19793701 4.5856934 0.60324097l20.934265 12.08316c2.8905334 1.668396 3.881073 5.3640137 2.2124634 8.254395l-70.03769 121.32089c-1.6686096 2.8903809 -5.364502 3.881012 -8.255005 2.2126465z" fill-rule="evenodd"/><path stroke="#999999" stroke-width="1.0" stroke-linejoin="round" stroke-linecap="butt" d="m335.97913 406.9589l0 0c-2.890503 -1.668396 -3.881073 -5.3640137 -2.2124634 -8.254395l70.03772 -121.32092c0.80126953 -1.3880005 2.1211548 -2.4009094 3.669281 -2.815857c1.5480957 -0.4149475 3.1976318 -0.19793701 4.5856934 0.60324097l20.934265 12.08316c2.8905334 1.668396 3.881073 5.3640137 2.2124634 8.254395l-70.03769 121.32089c-1.6686096 2.8903809 -5.364502 3.881012 -8.255005 2.2126465z" fill-rule="evenodd"/></g></svg>